<?xml version="1.0" encoding="UTF-8"?>
<svg width="255px" height="95px" viewBox="0 0 255 95" version="1.1" xmlns="http://www.w3.org/2000/svg" xmlns:xlink="http://www.w3.org/1999/xlink">
    <!-- Generator: Sketch 42 (36781) - http://www.bohemiancoding.com/sketch -->
    <title>Page 1</title>
    <desc>Created with Sketch.</desc>
    <defs>
        <polygon id="path-1" points="56.6054667 6.74740486e-05 1.28845083e-14 6.74740486e-05 0 64.617872 56.6054667 64.617872"></polygon>
    </defs>
    <g id="HOME" stroke="none" stroke-width="1" fill="none" fill-rule="evenodd">
        <g transform="translate(-118.000000, -142.000000)" id="HEADER-HOME">
            <g>
                <g id="Group-9" transform="translate(118.000000, 0.000000)">
                    <g id="Group-5" transform="translate(0.000000, 142.000000)">
                        <g id="Page-1" transform="translate(0.000000, 0.171991)">
                            <g id="Group-3" transform="translate(72.523551, 0.000000)">
                                <mask id="mask-2" fill="white">
                                    <use xlink:href="#path-1"></use>
                                </mask>
                                <g id="Clip-2"></g>
                                <path d="M53.7827867,42.9409343 C52.9187333,48.942301 50.6420933,53.6472664 47.01588,56.9242561 C43.39352,60.1985467 38.8812667,61.8586332 33.6037867,61.8586332 C28.3646133,61.8586332 24.4627733,59.6367128 22.0057067,55.2553979 C19.5175867,50.8189792 18.2561867,43.0988235 18.2561867,32.3090484 C18.2561867,21.5210727 19.5175867,13.800692 22.0057067,9.36202422 C24.4634533,4.98093426 27.60868,2.75946367 31.3536667,2.75946367 C38.1754267,2.75946367 43.48736,5.2116955 47.14304,10.0484602 C50.8186667,14.9122145 52.6825467,20.2766263 52.6825467,25.9925779 L52.6825467,26.2831661 L55.46352,26.2831661 L55.46352,1.41583045 L52.7918,1.41583045 L52.7918,1.7066436 C52.7918,2.51723183 52.5120933,3.36178201 51.9606133,4.21780277 C51.4274933,5.04368512 50.7357067,5.44515571 49.8474,5.44515571 C48.9182933,5.44515571 47.6961067,4.98363322 46.20532,4.06756055 C41.4237867,1.36882353 36.4271467,0 31.3536667,0 C21.95652,0 14.30176,2.59032872 8.60268,7.6983391 C2.89430667,12.8139965 0,21.0397578 0,32.1455363 C0,43.2531142 2.96865333,51.5333045 8.82277333,56.7569204 C14.6680533,61.9733391 23.17168,64.617872 34.0974667,64.617872 C39.7790933,64.617872 44.7367467,62.8167647 48.8330667,59.2642561 C52.9275733,55.7142215 55.5265333,50.2497232 56.5580933,43.0225779 L56.6054667,42.6912803 L53.8188267,42.6912803 L53.7827867,42.9409343 Z" id="Fill-1" fill="#FFFFFF" mask="url(#mask-2)"></path>
                            </g>
                            <path d="M188.079315,41.5957894 C188.079315,53.711637 182.840632,59.6015841 172.065143,59.6015841 L161.485608,59.6015841 L161.485608,32.198517 L165.543577,32.198517 C170.661742,32.198517 173.92479,32.7892386 175.240747,33.9540859 C176.547417,35.1142236 177.209586,37.684782 177.209586,41.5957894 L177.209586,41.8828523 L179.963831,41.8828523 L179.963831,19.7877572 L177.209586,19.7877572 L177.209586,20.0750443 C177.209586,23.8474542 176.544925,26.3843724 175.235084,27.6138089 C173.920259,28.8466094 170.659024,29.4720925 165.543577,29.4720925 L161.485608,29.4720925 L161.485608,4.22132412 L170.977989,4.22132412 C176.603371,4.22132412 180.726809,5.302071 183.234581,7.43351286 C185.728081,9.55643255 186.991935,13.809897 186.991935,20.0750443 L186.991935,20.3621072 L189.746179,20.3621072 L189.746179,1.49467532 L139.166667,1.49467532 L139.166667,4.22132412 L144.601305,4.22132412 L144.601305,59.6015841 L139.166667,59.6015841 L139.166667,62.3280087 L190.833333,62.3280087 L190.833333,41.3085023 L188.079315,41.3085023 L188.079315,41.5957894 Z" id="Fill-4" fill="#FFFFFF"></path>
                            <path d="M253.804344,38.2264229 C253.301947,37.0694973 252.790346,36.0185912 252.284133,35.1029277 C251.764675,34.1680087 250.943285,33.2435103 249.84331,32.3552578 C248.721559,31.4497886 247.860436,30.7405006 247.209205,30.1857109 C246.513527,29.595808 245.463611,28.926164 244.088642,28.1946753 C242.690101,27.453219 241.663308,26.9353549 240.949222,26.6107271 C240.230646,26.284287 237.897351,25.2163905 233.948663,23.4045459 C233.126824,23.0282676 231.692815,22.4061964 229.687268,21.5535103 C227.648272,20.687232 226.15253,19.9960669 225.24202,19.5001769 C224.320061,19.0011154 223.222554,18.3292061 221.978235,17.5025718 C220.768935,16.7019892 219.914995,15.8073938 219.438863,14.8437044 C218.958914,13.8752578 218.715124,12.4566818 218.715124,10.6255815 C218.715124,8.83004749 219.448965,7.16092127 220.89532,5.66532257 C222.341003,4.17221577 224.373488,3.41535493 226.93688,3.41535493 C232.796607,3.41535493 237.661866,5.05571092 241.397742,8.29066237 C245.119476,11.5167789 247.006495,15.7398857 247.006495,20.8424099 L247.006495,21.1323776 L249.735557,21.1323776 L249.735557,0.661341984 L247.006495,0.661341984 L247.006495,0.951536159 C247.006495,4.465808 245.60122,4.465808 245.13968,4.465808 C244.815748,4.465808 243.457166,4.13823519 238.821779,2.57852645 C235.036292,1.30651998 230.729326,0.661341984 226.021206,0.661341984 C221.269761,0.661341984 216.949551,2.27496658 213.181124,5.4573614 C209.404841,8.64474004 207.214318,13.1897562 206.670167,18.9675879 C206.124444,24.7714714 208.136726,29.5024747 212.650667,33.0282999 C214.88227,34.7726365 218.779327,36.9238339 224.23296,39.4218598 C229.647534,41.9024423 233.520346,43.7471349 235.738929,44.9017951 C239.713882,47.083575 241.728857,49.7408565 241.728857,52.7986559 C241.728857,55.5300151 240.870652,57.7453226 239.178486,59.3827336 C237.482278,61.0239957 235.211839,61.8562934 232.430023,61.8562934 C225.574931,61.8562934 219.681531,59.4704035 214.912576,54.7649989 C210.14609,50.0620863 207.729062,44.2808565 207.729062,37.581698 L207.729062,37.2917303 L205,37.2917303 L205,63.1973938 L207.729062,63.1973938 L207.729062,62.9071996 C207.729062,60.1769731 208.938361,58.849465 211.426776,58.849465 C212.308776,58.849465 213.714051,59.3503387 215.602642,60.3384941 C221.289965,63.3174585 227.096938,64.8280087 232.861259,64.8280087 C239.288483,64.8280087 244.477225,63.2517627 248.282691,60.1436721 C252.095341,57.0296915 254.323129,52.4472967 254.904769,46.5210831 C255.193905,43.3697239 254.823954,40.5787853 253.804344,38.2264229" id="Fill-6" fill="#FFFFFF"></path>
                            <path d="M41.7607033,55.2208816 C39.711045,57.8895154 34.0978248,59.2238324 31.3822026,59.2238324 C28.6643199,59.2238324 26.283036,58.3126852 24.2356381,56.4883585 C22.1859798,54.6660641 20.9395017,51.4137089 20.4950738,48.031964 C20.138582,43.4073557 21.2297589,39.8047677 23.7679263,37.2230711 C26.3058677,34.64431 31.5519714,33.0868918 35.6492537,32.5526231 L41.7607033,31.8858034 L41.7607033,55.2208816 Z M59.8018566,59.0235381 C58.6437668,57.823127 58.0652871,54.2155712 58.0652871,49.4995094 L58.0652871,25.4809014 C58.0652871,16.2298782 56.0825415,9.7809432 52.1211195,6.1325156 C48.1574369,2.4858945 43.9523255,0.661341984 34.6471432,0.661341984 C25.3403785,0.661341984 18.3500194,2.28582599 13.6747095,5.53208427 C8.99917354,8.77992323 6.6615186,12.670646 6.6615186,17.2078655 C6.6615186,19.9661463 7.64057125,22.3014832 9.60025897,24.2129729 C11.5579122,26.1271724 13.2445231,26.4315656 15.9621798,26.4315656 C18.6778019,26.4315656 20.3409029,26.1271724 22.2571877,24.2129729 C24.1709859,22.3014832 25.1290152,19.9661463 25.1290152,17.2078655 C25.1290152,16.0526166 24.8159263,14.4951985 24.1940437,12.5376433 C23.5699004,10.581443 23.1256985,9.00121797 22.8582731,7.80035531 C22.5908478,6.59926685 22.9459832,5.53208427 23.9266183,4.59790436 C24.905671,3.66349863 28.4127185,3.19674738 31.8417764,3.19674738 C35.2690259,3.19674738 38.865818,4.53106431 40.0241338,7.19969817 C41.1808673,9.86833204 41.7607033,15.0728229 41.7607033,22.8122676 L41.7607033,29.3506238 L35.1150811,30.0178951 C23.5368961,31.3522121 16.5759244,33.64329 11.9467301,36.8895483 C7.31504924,40.1382905 5,44.7416726 5,50.7005979 C5,55.1502028 6.58036415,59.157444 9.74244879,61.425715 C12.9024989,63.693986 16.9330944,64.8280087 21.8319746,64.8280087 C31.0031051,64.8280087 37.9744755,62.5163819 42.4289277,57.8895154 C44.2988708,62.2492475 46.4540978,64.4283233 53.7575458,64.4283233 C57.0509695,64.4283233 58.6437668,64.0943489 61.1376271,63.4275291 C63.630131,62.7600319 66.6086574,61.9821132 67.5,61.0921922 L67.5,58.4732368 C64.3819965,59.1858961 60.9583639,60.2246265 59.8018566,59.0235381 L59.8018566,59.0235381 Z" id="Fill-8" fill="#FFFFFF"></path>
                            <path d="M3.40624254,83.906201 C20.2422721,81.3488355 52.9749732,79.8013879 70.0111533,79.7863211 C73.290248,79.7834407 76.6012768,75.6571354 71.6256256,75.6613452 C53.9458156,75.6770767 20.538225,78.0040089 3.06396271,80.6584222 C-1.184625,81.3036352 -0.962885243,84.5698043 3.40624254,83.906201" id="Fill-10" fill="#E25E54"></path>
                            <path d="M15.4824365,90.2366556 C15.1282706,89.2419193 13.5627809,88.9783508 11.6244376,90.5203753 C10.9899561,91.0250712 10.3554746,91.5297671 9.72099304,92.034692 C8.65489298,92.8826453 6.94778195,95.47528 10.3309329,94.6774758 C26.849067,90.7823409 43.0274451,90.0946813 60.0206524,90.5693794 C62.4207847,90.6364737 67.1906537,85.834077 63.8523083,85.7408777 C47.5719359,85.2861018 31.3611357,86.7811833 15.4824365,90.2366556" id="Fill-12" fill="#E25E54"></path>
                            <path d="M8.64745434,76.3560309 C26.6858336,73.260167 46.6139694,73.6380932 64.8440304,73.0879758 C69.6171312,72.944185 67.2774865,69.8442958 63.1653494,69.8302075 C42.7158393,69.7604365 21.8263633,71.3553297 8.00701182,74.0104287 C3.32388865,74.9100719 4.5567405,77.0582132 8.64745434,76.3560309" id="Fill-14" fill="#E25E54"></path>
                            <path d="M81.7918663,84.3540068 L81.7918663,79.7791232 L80.8333333,79.7791232 L80.8333333,78.7822341 L81.7918663,78.7822341 L81.7918663,76.4946753 L82.8166514,76.4946753 L82.8166514,78.7822341 L85,78.7822341 L85,79.7791232 L82.8166514,79.7791232 L82.8166514,84.2073505 C82.8166514,85.1310283 83.2827524,85.4685485 83.9747902,85.4685485 C84.3209153,85.4685485 84.6137414,85.3951034 84.9732443,85.2044735 L84.9732443,86.1723588 C84.6137414,86.3774906 84.2279075,86.4946753 83.7354755,86.4946753 C82.6304233,86.4946753 81.7918663,85.8935479 81.7918663,84.3540068" id="Fill-16" fill="#B1B3B3"></path>
                            <path d="M88.3333333,75.661342 L89.4692665,75.661342 L89.4692665,79.8120751 C89.9704135,79.0448614 90.7670725,78.4286431 92.0797012,78.4286431 C93.9233574,78.4286431 95,79.5793544 95,81.2641215 L95,85.661342 L93.8640668,85.661342 L93.8640668,81.5243754 C93.8640668,80.2093393 93.0975237,79.3872778 91.7550144,79.3872778 C90.4423857,79.3872778 89.4692665,80.2777351 89.4692665,81.6065379 L89.4692665,85.661342 L88.3333333,85.661342 L88.3333333,75.661342 Z" id="Fill-18" fill="#B1B3B3"></path>
                            <path d="M102.270068,81.4807417 C102.147409,80.175315 101.411235,79.0641957 100.020443,79.0641957 C98.8073335,79.0641957 97.8799939,80.0920087 97.7301494,81.4807417 L102.270068,81.4807417 Z M100.211392,84.7307934 C101.1794,84.7307934 101.861204,84.3279988 102.433396,83.7169386 L103.088015,84.3142621 C102.379026,85.1196298 101.520193,85.661342 100.184207,85.661342 C98.2481895,85.661342 96.6666667,84.1474281 96.6666667,81.9112312 C96.6666667,79.8281317 98.0981275,78.161342 100.047628,78.161342 C102.133707,78.161342 103.333333,79.8558266 103.333333,81.9670641 C103.333333,82.064107 103.333333,82.1753298 103.31985,82.3417207 L97.7301494,82.3417207 C97.8799939,83.8558562 98.9706618,84.7307934 100.211392,84.7307934 L100.211392,84.7307934 Z" id="Fill-20" fill="#B1B3B3"></path>
                            <path d="M110.833333,84.5977576 L111.405,83.8281376 C112.225674,84.4160665 113.134261,84.7517708 114.028351,84.7517708 C114.937406,84.7517708 115.596751,84.3040163 115.596751,83.6042603 L115.596751,83.5761362 C115.596751,82.8489257 114.70266,82.5688001 113.705927,82.303183 C112.518638,81.9813176 111.199714,81.589365 111.199714,80.2601634 L111.199714,80.2320393 C111.199714,78.9867638 112.284126,78.161342 113.779577,78.161342 C114.70266,78.161342 115.72862,78.4691453 116.505338,78.9590861 L115.992592,79.7704459 C115.289056,79.3365302 114.482878,79.0709131 113.750117,79.0709131 C112.855792,79.0709131 112.284126,79.5186677 112.284126,80.1202123 L112.284126,80.1481132 C112.284126,80.8338071 113.222173,81.0998706 114.233637,81.3936119 C115.406429,81.7293162 116.666667,82.1630086 116.666667,83.4643092 L116.666667,83.4924333 C116.666667,84.8635979 115.479612,85.661342 113.969899,85.661342 C112.885019,85.661342 111.683234,85.2553273 110.833333,84.5977576" id="Fill-22" fill="#B1B3B3"></path>
                            <path d="M125.567492,81.9391477 L125.567492,81.9114528 C125.567492,80.3698439 124.412605,79.1058488 122.895913,79.1058488 C121.337491,79.1058488 120.265841,80.3698439 120.265841,81.8835363 L120.265841,81.9114528 C120.265841,83.4530616 121.406967,84.7030985 122.923881,84.7030985 C124.482302,84.7030985 125.567492,83.4530616 125.567492,81.9391477 M119.166667,81.9391477 L119.166667,81.9114528 C119.166667,79.8835215 120.753056,78.161342 122.923881,78.161342 C125.0805,78.161342 126.666667,79.8558266 126.666667,81.8835363 L126.666667,81.9114528 C126.666667,83.9391624 125.066516,85.661342 122.895913,85.661342 C120.739072,85.661342 119.166667,83.9670789 119.166667,81.9391477" id="Fill-24" fill="#B1B3B3"></path>
                            <path d="M128.333333,81.9391477 L128.333333,81.9114528 C128.333333,79.8835215 129.929848,78.161342 132.044683,78.161342 C133.417337,78.161342 134.271671,78.7309707 134.9437,79.4390738 L134.229669,80.1892732 C133.655496,79.5919496 133.011171,79.1058488 132.030608,79.1058488 C130.560098,79.1058488 129.439678,80.3419275 129.439678,81.8835363 L129.439678,81.9114528 C129.439678,83.4670198 130.588248,84.7030985 132.100983,84.7030985 C133.025022,84.7030985 133.7395,84.2446925 134.313673,83.6336323 L135,84.272609 C134.271671,85.0781982 133.403262,85.661342 132.044683,85.661342 C129.929848,85.661342 128.333333,83.9531207 128.333333,81.9391477" id="Fill-26" fill="#B1B3B3"></path>
                            <path d="M138.380611,85.661342 L139.109873,85.661342 L139.109873,78.4307409 L138.380611,78.4307409 L138.380611,85.661342 Z M138.333333,76.8502671 L139.166667,76.8502671 L139.166667,75.661342 L138.333333,75.661342 L138.333333,76.8502671 Z" id="Fill-28" fill="#B1B3B3"></path>
                            <path d="M147.270068,81.4807417 C147.147409,80.175315 146.411235,79.0641957 145.020443,79.0641957 C143.807333,79.0641957 142.879994,80.0920087 142.730149,81.4807417 L147.270068,81.4807417 Z M145.211392,84.7307934 C146.1794,84.7307934 146.861204,84.3279988 147.433396,83.7169386 L148.088015,84.3142621 C147.379026,85.1196298 146.520193,85.661342 145.184207,85.661342 C143.248189,85.661342 141.666667,84.1474281 141.666667,81.9112312 C141.666667,79.8281317 143.098127,78.161342 145.047628,78.161342 C147.133707,78.161342 148.333333,79.8558266 148.333333,81.9670641 C148.333333,82.064107 148.333333,82.1753298 148.31985,82.3417207 L142.730149,82.3417207 C142.879994,83.8558562 143.970662,84.7307934 145.211392,84.7307934 L145.211392,84.7307934 Z" id="Fill-30" fill="#B1B3B3"></path>
                            <path d="M151.791866,84.3540068 L151.791866,79.7791232 L150.833333,79.7791232 L150.833333,78.7822341 L151.791866,78.7822341 L151.791866,76.4946753 L152.816864,76.4946753 L152.816864,78.7822341 L155,78.7822341 L155,79.7791232 L152.816864,79.7791232 L152.816864,84.2073505 C152.816864,85.1310283 153.282752,85.4685485 153.97479,85.4685485 C154.320915,85.4685485 154.613741,85.3951034 154.973244,85.2044735 L154.973244,86.1723588 C154.613741,86.3774906 154.227907,86.4946753 153.735475,86.4946753 C152.630423,86.4946753 151.791866,85.8935479 151.791866,84.3540068" id="Fill-31" fill="#B1B3B3"></path>
                            <path d="M156.983329,87.7789642 L157.357628,86.8816667 C157.717691,87.0730901 158.04859,87.1612951 158.523698,87.1612951 C159.185726,87.1612951 159.603196,86.8082407 160.049371,85.7347679 L156.666667,78.161342 L157.890144,78.161342 L160.596583,84.4996642 L162.98613,78.161342 L164.166667,78.161342 L161.042757,86.0143963 C160.409204,87.5875407 159.689768,88.161342 158.566869,88.161342 C157.948011,88.161342 157.48737,88.0288 156.983329,87.7789642" id="Fill-32" fill="#B1B3B3"></path>
                            <path d="M171.78163,79.5441577 L170.833333,79.5441577 L170.833333,78.6311549 L171.78163,78.6311549 L171.78163,78.0182846 C171.78163,77.2145987 171.995321,76.6012937 172.382438,76.2064053 C172.729713,75.8521576 173.237204,75.661342 173.864857,75.661342 C174.345929,75.661342 174.66636,75.7156745 175,75.8384658 L175,76.7512514 C174.626306,76.6423691 174.345929,76.5739102 173.998654,76.5739102 C173.19715,76.5739102 172.796399,77.0646411 172.796399,78.0728344 L172.796399,78.6448466 L174.987004,78.6448466 L174.987004,79.5441577 L172.809821,79.5441577 L172.809821,85.661342 L171.78163,85.661342 L171.78163,79.5441577 Z" id="Fill-33" fill="#B1B3B3"></path>
                            <path d="M183.900826,81.9391477 L183.900826,81.9114528 C183.900826,80.3698439 182.745716,79.1058488 181.229246,79.1058488 C179.670825,79.1058488 178.599174,80.3698439 178.599174,81.8835363 L178.599174,81.9114528 C178.599174,83.4530616 179.7403,84.7030985 181.25677,84.7030985 C182.815191,84.7030985 183.900826,83.4530616 183.900826,81.9391477 M177.5,81.9391477 L177.5,81.9114528 C177.5,79.8835215 179.086389,78.161342 181.25677,78.161342 C183.413611,78.161342 185,79.8558266 185,81.8835363 L185,81.9114528 C185,83.9391624 183.399849,85.661342 181.229246,85.661342 C179.072405,85.661342 177.5,83.9670789 177.5,81.9391477" id="Fill-34" fill="#B1B3B3"></path>
                            <path d="M187.5,78.292218 L188.61425,78.292218 L188.61425,80.2165259 C189.163759,78.9902713 190.248698,78.1066767 191.666667,78.1639762 L191.666667,79.3468015 L191.57989,79.3468015 C189.94498,79.3468015 188.61425,80.5014317 188.61425,82.7251977 L188.61425,85.661342 L187.5,85.661342 L187.5,78.292218 Z" id="Fill-35" fill="#B1B3B3"></path>
                            <path d="M203.936735,81.4807417 C203.814075,80.175315 203.077902,79.0641957 201.687327,79.0641957 C200.474,79.0641957 199.546661,80.0920087 199.396599,81.4807417 L203.936735,81.4807417 Z M201.878058,84.7307934 C202.846067,84.7307934 203.52787,84.3279988 204.100063,83.7169386 L204.754681,84.3142621 C204.045693,85.1196298 203.18686,85.661342 201.850873,85.661342 C199.914856,85.661342 198.333333,84.1474281 198.333333,81.9112312 C198.333333,79.8281317 199.764794,78.161342 201.714295,78.161342 C203.800374,78.161342 205,79.8558266 205,81.9670641 C205,82.064107 205,82.1753298 204.986516,82.3417207 L199.396599,82.3417207 C199.546661,83.8558562 200.637328,84.7307934 201.878058,84.7307934 L201.878058,84.7307934 Z" id="Fill-36" fill="#B1B3B3"></path>
                            <path d="M213.936757,82.5618113 L213.936757,82.5324267 C213.936757,80.7929087 212.62919,79.6231241 211.249885,79.6231241 C209.813281,79.6231241 208.634982,80.7052215 208.634982,82.5324267 L208.634982,82.5618113 C208.634982,84.3454062 209.84216,85.4858061 211.249885,85.4858061 C212.62919,85.4858061 213.936757,84.3013294 213.936757,82.5618113 M207.5,82.5765035 L207.5,82.547119 C207.5,80.0767188 209.267335,78.6147214 211.04888,78.6147214 C212.427956,78.6147214 213.318843,79.374988 213.893668,80.2227087 L213.893668,75.661342 L215,75.661342 L215,86.33376 L213.893668,86.33376 L213.893668,84.8132267 C213.290423,85.7197164 212.413746,86.4946753 211.04888,86.4946753 C209.267335,86.4946753 207.5,85.0618292 207.5,82.5765035" id="Fill-37" fill="#B1B3B3"></path>
                            <path d="M218.38062,85.661342 L219.110013,85.661342 L219.110013,78.4307409 L218.38062,78.4307409 L218.38062,85.661342 Z M218.333333,76.8502671 L219.166667,76.8502671 L219.166667,75.661342 L218.333333,75.661342 L218.333333,76.8502671 Z" id="Fill-38" fill="#B1B3B3"></path>
                            <path d="M222.625036,84.3540068 L222.625036,79.7791232 L221.666667,79.7791232 L221.666667,78.7822341 L222.625036,78.7822341 L222.625036,76.4946753 L223.650086,76.4946753 L223.650086,78.7822341 L225.833333,78.7822341 L225.833333,79.7791232 L223.650086,79.7791232 L223.650086,84.2073505 C223.650086,85.1310283 224.115998,85.4685485 224.808071,85.4685485 C225.154426,85.4685485 225.447055,85.3951034 225.806576,85.2044735 L225.806576,86.1723588 C225.447055,86.3774906 225.061201,86.4946753 224.568744,86.4946753 C223.463636,86.4946753 222.625036,85.8935479 222.625036,84.3540068" id="Fill-39" fill="#B1B3B3"></path>
                            <path d="M229.213802,85.661342 L229.943196,85.661342 L229.943196,78.4307409 L229.213802,78.4307409 L229.213802,85.661342 Z M229.166667,76.8502671 L230,76.8502671 L230,75.661342 L229.166667,75.661342 L229.166667,76.8502671 Z" id="Fill-40" fill="#B1B3B3"></path>
                            <path d="M233.333333,78.3176911 L234.469267,78.3176911 L234.469267,79.5959019 C234.970414,78.8003341 235.767073,78.161342 237.079466,78.161342 C238.923357,78.161342 240,79.3545805 240,81.1016121 L240,85.661342 L238.864067,85.661342 L238.864067,81.3717109 C238.864067,80.0078479 238.097524,79.1556318 236.755014,79.1556318 C235.442386,79.1556318 234.469267,80.0787715 234.469267,81.4569098 L234.469267,85.661342 L233.333333,85.661342 L233.333333,78.3176911 Z" id="Fill-41" fill="#B1B3B3"></path>
                            <path d="M248.936757,81.7119142 L248.936757,81.6830158 C248.936757,80.1467772 247.61498,79.1468928 246.206796,79.1468928 C244.798842,79.1468928 243.634982,80.1322124 243.634982,81.6686822 L243.634982,81.6975806 C243.634982,83.2046896 244.827721,84.2484995 246.206796,84.2484995 C247.61498,84.2484995 248.936757,83.2192544 248.936757,81.7119142 M242.844712,87.1177632 L243.347798,86.2480372 C244.195367,86.8713177 245.143553,87.2046896 246.206796,87.2046896 C247.844864,87.2046896 248.907878,86.2917315 248.907878,84.538177 L248.907878,83.6541174 C248.261544,84.5236122 247.356217,85.233588 245.991352,85.233588 C244.209577,85.233588 242.5,83.8859981 242.5,81.726479 L242.5,81.6975806 C242.5,79.5089319 244.224017,78.161342 245.991352,78.161342 C247.385096,78.161342 248.290423,78.8569841 248.893668,79.6686822 L248.893668,78.3208611 L250,78.3208611 L250,84.5090475 C250,85.668451 249.655288,86.5525106 249.051585,87.1609952 C248.390811,87.8279701 247.399306,88.161342 246.221236,88.161342 C244.985408,88.161342 243.835987,87.8134053 242.844712,87.1177632" id="Fill-42" fill="#B1B3B3"></path>
                        </g>
                    </g>
                </g>
            </g>
        </g>
    </g>
</svg>